# xmcd
#
# Track frame offsets: 
#        150
#        29093
#        61175
#        84414
#        102247
#        126157
#        138867
#        156957
#
# Disc length: 2604 seconds
#
# Revision: 1
# Processed by: cddbd v1.5.2PL0 Copyright (c) Steve Scherf et al.
# Submitted via: ExactAudioCopyFreeDBPlugin 1.0
#
DISCID=650a2a08
DTITLE=Otis Redding - Live at the Whiskey A Go Go:  The Complete Recor
DTITLE=dings (April 8-10, 1966)
DYEAR=2016
DGENRE=Soul
TTITLE0=Just One More Day (Friday, April 8, 1966 - Set Two)
TTITLE1=(I Can't Get No) Satisfaction (Friday, April 8, 1966 - Set Two
TTITLE1=)
TTITLE2=Any Ole Way (Friday, April 8, 1966 - Set Two)
TTITLE3=These Arms of Mine (Friday, April 8, 1966 - Set Two)
TTITLE4=I Can't Turn You Loose (Friday, April 8, 1966 - Set Two)
TTITLE5=Pain in My Heart (Friday, April 8, 1966 - Set Two)
TTITLE6=Good to Me (Friday, April 8, 1966 - Set Two)
TTITLE7=(I Can't Get No) Satisfaction (Redux) (Friday, April 8, 1966 -
TTITLE7=Set Two)
EXTD=
EXTT0=
EXTT1=
EXTT2=
EXTT3=
EXTT4=
EXTT5=
EXTT6=
EXTT7=
PLAYORDER=
